/* XPM */
static char *Fire_Animation_3[] = {
/* columns rows colors chars-per-pixel */
"32 32 16 1 ",
"  c #FF8000",
". c #FD5F0C",
"X c #EF4A17",
"o c #FD7B02",
"O c #FF8300",
"+ c #FE8D00",
"@ c #FF8801",
"# c #ED4C11",
"$ c #FFCE38",
"% c #FEF9ED",
"& c #CC342E",
"* c #FF8601",
"= c #130215",
"- c None",
"; c black",
": c black",
/* pixels */
"--------------------------------",
"--------------------------------",
"------------------#-------------",
"----------------=---------------",
"-------------#-=&---------------",
"---------------=&=--------------",
"---------------=&=--------------",
"-------- -----=&&=--------------",
"--------=-----=&##=-------------",
"-------------=&#*&===-- #-------",
"--------- ---=#***#&=--= -------",
"---------=--==#*$**&=--=--------",
"-----------=&&**%$*#&=----------",
"----------==#**%$$*#&=- #-------",
"---------=&&*$$%%%$*&=-== ------",
"--------=&#*$$%%%%$*#=--=-------",
"--------=&#*$%%%%%$$$&=---------",
"--------=&#$$%%%%%%$$&=---------",
"--------=&*$%%%%%%%$*#&=--------",
"--------=&**%%%%%%$$*#&=--------",
"--------=##**$%%%%%*##&=--------",
"--------==&#**%%%$*##&==--------",
"---------==&#*$%%$*#&==---------",
"----------=&#$%%$**#&=----------",
"-----------=#*$$*#&==-----------",
"-----------=========------------",
"--------------------------------",
"--------------------------------",
"--------------------------------",
"--------------------------------",
"--------------------------------",
"--------------------------------"
};
